<svg xmlns="http://www.w3.org/2000/svg" width="341" height="334" viewBox="0 0 341 334">
    <defs>
        <linearGradient id="a" x1="50%" x2="50%" y1="0%" y2="100%">
            <stop offset="0%" stop-color="#E4C5FF" stop-opacity=".146"/>
            <stop offset="100%" stop-color="#3D0F73" stop-opacity=".2"/>
        </linearGradient>
    </defs>
    <path fill="url(#a)" fill-opacity=".9" fill-rule="evenodd" d="M7.846 2.004L1.533 12.97A4 4 0 0 0 1 14.966v305.816a4 4 0 0 0 .781 2.375l6.026 8.166a4 4 0 0 0 3.201 1.625l46.673.205 9.283-11.514 263.562.913a4 4 0 0 0 3.402-1.874l6.653-10.605a4 4 0 0 0 .612-2.126V16.114a4 4 0 0 0-.465-1.871L334.32 2.129A4 4 0 0 0 330.784 0H11.313a4 4 0 0 0-3.467 2.004z" transform="translate(-1)"/>
</svg>
