<svg xmlns="http://www.w3.org/2000/svg" width="26" height="26" viewBox="0 0 26 26">
    <g fill="#FFF" fill-rule="nonzero">
        <path d="M18.72 0H7.136C3.201 0 0 3.201 0 7.135v11.586c0 3.935 3.2 7.136 7.135 7.136h11.586c3.935 0 7.136-3.202 7.136-7.136V7.135C25.857 3.201 22.656 0 18.72 0zm4.843 18.721a4.847 4.847 0 0 1-4.842 4.841H7.135a4.847 4.847 0 0 1-4.84-4.84V7.134a4.847 4.847 0 0 1 4.84-4.84h11.586a4.847 4.847 0 0 1 4.841 4.84v11.586z"/>
        <path d="M12.928 6.266a6.67 6.67 0 0 0-6.662 6.663 6.67 6.67 0 0 0 6.662 6.662 6.67 6.67 0 0 0 6.663-6.662 6.67 6.67 0 0 0-6.663-6.663zm0 11.03a4.373 4.373 0 0 1-4.368-4.368 4.373 4.373 0 0 1 4.368-4.368 4.373 4.373 0 0 1 4.369 4.368 4.373 4.373 0 0 1-4.369 4.369zM19.87 4.32c-.442 0-.876.18-1.188.493a1.69 1.69 0 0 0-.494 1.19c0 .442.18.876.494 1.19.312.312.746.492 1.188.492.444 0 .877-.18 1.19-.492.314-.314.493-.748.493-1.19a1.69 1.69 0 0 0-.493-1.19 1.69 1.69 0 0 0-1.19-.492z"/>
    </g>
</svg>
