<svg xmlns="http://www.w3.org/2000/svg" xmlns:xlink="http://www.w3.org/1999/xlink" width="56" height="56" viewBox="0 0 56 56">
    <defs>
        <path id="b" d="M604 239c9.896 0 18 8.032 18 18v14.414a3.55 3.55 0 0 1-3.586 3.586c-1.936 0-3.514-1.578-3.514-3.586V257c0-6.024-4.876-10.9-10.9-10.9s-10.9 4.876-10.9 10.9v14.414a3.55 3.55 0 0 1-3.586 3.586c-1.936 0-3.514-1.578-3.514-3.586V257c0-9.968 8.104-18 18-18z"/>
        <filter id="a" width="183.3%" height="183.3%" x="-41.7%" y="-41.7%" filterUnits="objectBoundingBox">
            <feMorphology in="SourceAlpha" operator="dilate" radius="1" result="shadowSpreadOuter1"/>
            <feOffset in="shadowSpreadOuter1" result="shadowOffsetOuter1"/>
            <feGaussianBlur in="shadowOffsetOuter1" result="shadowBlurOuter1" stdDeviation="4"/>
            <feColorMatrix in="shadowBlurOuter1" values="0 0 0 0 1 0 0 0 0 1 0 0 0 0 1 0 0 0 0.5 0"/>
        </filter>
    </defs>
    <g fill="none" fill-rule="nonzero" transform="translate(-576 -229)">
        <use fill="#000" filter="url(#a)" xlink:href="#b"/>
        <use fill="#371963" xlink:href="#b"/>
    </g>
</svg>
