<svg xmlns="http://www.w3.org/2000/svg" width="36" height="28" viewBox="0 0 36 28">
    <g fill="#FFF" fill-rule="nonzero" stroke="#FFF">
        <path d="M28.239 1.351H7.76C4.033 1.351 1 4.433 1 8.22v11.56c0 3.787 3.033 6.868 6.761 6.868H28.24c3.728 0 6.761-3.081 6.761-6.868V8.22c0-3.787-3.033-6.869-6.761-6.869zm5.373 18.43c0 3.012-2.41 5.462-5.373 5.462H7.76c-2.963 0-5.373-2.45-5.373-5.463V8.22c0-3.012 2.41-5.463 5.373-5.463H28.24c2.963 0 5.373 2.45 5.373 5.463v11.56z"/>
        <path d="M24.148 13.746l-9.614-5.703a.688.688 0 0 0-.695-.003.704.704 0 0 0-.35.61v11.404c0 .251.134.485.35.61a.69.69 0 0 0 .695-.004l9.614-5.7a.705.705 0 0 0 .343-.607c0-.25-.13-.482-.343-.607zm-9.27 5.082V9.875l7.546 4.477-7.546 4.476z"/>
    </g>
</svg>
